<?xml version="1.0" encoding="UTF-8" standalone="no"?>
<!DOCTYPE svg PUBLIC "-//W3C//DTD SVG 1.1//EN" "http://www.w3.org/Graphics/SVG/1.1/DTD/svg11.dtd">
<svg width="100%" height="100%" viewBox="0 0 96 96" version="1.1" xmlns="http://www.w3.org/2000/svg" xmlns:xlink="http://www.w3.org/1999/xlink" xml:space="preserve" xmlns:serif="http://www.serif.com/" style="fill-rule:evenodd;clip-rule:evenodd;stroke-linejoin:round;stroke-miterlimit:2;">
    <path d="M48,96C74.51,96 96,74.51 96,48C96,21.49 74.51,0 48,0C21.49,0 0,21.49 0,48C0,74.51 21.49,96 48,96ZM60.3,9.909C56.3,8.609 51.5,7.909 47.3,8.009C43.4,8.009 38.2,8.909 35,10.009C32,11.009 27.3,13.609 24.5,15.709C21.8,17.709 17.9,21.709 15.8,24.409C13.8,27.209 11.2,32.209 10,35.709C8.9,39.109 8,44.509 8,47.709C8,50.809 8.9,56.309 10,59.909C11.1,63.509 13.7,68.609 15.8,71.409C17.9,74.209 21.8,78.109 24.5,80.109C27.3,82.209 32.3,84.709 35.8,85.909C39.3,87.009 44.7,87.909 48.3,87.909C51.9,87.909 57,87.109 60.5,85.909C63.8,84.809 68.7,82.209 71.5,80.109C74.2,78.109 78.1,74.209 80.2,71.409C82.2,68.709 84.8,63.609 86,60.209C87.1,56.709 88,51.309 88,48.209C88,45.009 87.1,39.509 86,35.909C84.9,32.309 82.3,27.209 80.2,24.409C78.1,21.709 74.2,17.709 71.5,15.709C68.7,13.609 63.7,11.109 60.3,9.909ZM23.1,25.609C25.5,22.909 29.1,19.809 31,18.609C32.9,17.409 36.3,15.909 38.5,15.209C40.7,14.509 45.7,14.009 49.5,14.209C54.5,14.409 58,15.209 62,17.109C65.1,18.609 69.6,22.009 72.3,24.809C74.9,27.609 78,32.009 79.2,34.609C81,38.409 81.5,41.209 81.5,47.909C81.5,55.109 81.1,57.209 78.8,61.909C77.3,64.909 74.1,69.309 71.8,71.709C69.4,74.109 65,77.309 62,78.709C57.4,81.009 55.2,81.409 48,81.409C40.8,81.409 38.6,81.009 34,78.709C31,77.309 26.4,73.809 23.8,71.009C21.1,68.209 18,63.809 16.8,61.209C15,57.409 14.5,54.609 14.5,47.909C14.5,41.509 15,38.309 16.6,34.909C17.7,32.409 20.6,28.209 23.1,25.609ZM44.8,28.909C44.3,27.109 43.4,25.909 42.3,25.909C41,25.909 40.8,26.609 41.3,29.709C41.7,32.609 41.4,33.709 39.9,34.709C38.9,35.309 37.6,37.009 37,38.409C36.5,39.809 35.7,40.909 35.3,40.909C34.8,40.909 33.7,40.409 32.7,39.709C31.6,38.909 30.7,36.909 30.6,34.909C30.3,32.409 29.7,31.309 28.4,31.009C26.7,30.709 26.6,31.109 27.2,35.509C27.6,38.909 28.5,40.909 30.2,42.209C31.5,43.209 33.3,44.009 34.3,43.909C35.5,43.909 36,44.709 36,46.409C36,48.809 35.7,48.909 30.5,48.909C26.3,48.909 25,49.209 25,50.409C25,51.609 26.3,51.909 30.5,51.909C35.3,51.909 36,52.109 36,53.909C36,55.109 35.3,55.909 34.4,55.909C33.6,55.909 31.5,57.309 29.9,58.909C27.7,61.209 27,62.809 27,65.909C27,68.809 27.4,69.909 28.5,69.909C29.3,69.909 30.2,69.209 30.5,68.409C30.8,67.609 31,65.909 31,64.709C31,63.409 31.5,61.809 32.2,61.209C32.9,60.509 34,59.909 34.7,59.909C35.4,59.909 37.5,61.409 39.3,63.309C41,65.209 43.6,67.009 45,67.409C46.4,67.809 48.9,67.809 50.5,67.409C52.2,67.009 55,65.209 56.8,63.309C58.5,61.409 60.6,59.909 61.3,59.909C61.9,59.909 63.1,60.409 63.8,61.109C64.5,61.809 65,63.409 65,64.709C65,65.909 65.2,67.609 65.5,68.409C65.8,69.209 66.7,69.909 67.5,69.909C68.6,69.909 69,68.809 69,65.909C69,62.809 68.3,61.209 66,58.909C64.3,57.309 62.3,55.909 61.5,55.909C60.7,55.909 60,55.009 60,53.909C60,52.109 60.7,51.909 65.5,51.909C69.7,51.909 71,51.609 71,50.409C71,49.209 69.7,48.909 65.5,48.909C60.3,48.909 60,48.809 60,46.409C60,44.709 60.5,43.909 61.8,43.909C62.7,44.009 64.5,43.209 65.8,42.209C67.5,40.909 68.4,38.909 68.8,35.509C69.4,31.109 69.3,30.709 67.6,31.009C66.3,31.309 65.7,32.409 65.4,34.909C65.3,36.909 64.4,38.909 63.3,39.709C62.3,40.409 61.2,40.909 60.8,40.909C60.3,40.909 59.6,39.809 59,38.409C58.5,37.009 57.1,35.309 56.1,34.709C54.6,33.609 54.3,32.709 54.8,29.609C55.4,26.509 55.2,25.909 53.8,25.909C52.6,25.909 51.7,27.009 51.3,28.909C50.8,30.609 49.9,32.109 49.3,32.409C48.6,32.709 47.4,32.709 46.8,32.409C46.1,32.109 45.2,30.609 44.8,28.909Z" style="fill:white;"/>
    <path d="M47.3,8.1C51.5,8 56.3,8.7 60.3,10C63.7,11.2 68.7,13.7 71.5,15.8C74.2,17.8 78.1,21.8 80.2,24.5C82.3,27.3 84.9,32.4 86,36C87.1,39.6 88,45.1 88,48.3C88,51.4 87.1,56.8 86,60.3C84.8,63.7 82.2,68.8 80.2,71.5C78.1,74.3 74.2,78.2 71.5,80.2C68.7,82.3 63.8,84.9 60.5,86C57,87.2 51.9,88 48.3,88C44.7,88 39.3,87.1 35.8,86C32.3,84.8 27.3,82.3 24.5,80.2C21.8,78.2 17.9,74.3 15.8,71.5C13.7,68.7 11.1,63.6 10,60C8.9,56.4 8,50.9 8,47.8C8,44.6 8.9,39.2 10,35.8C11.2,32.3 13.8,27.3 15.8,24.5C17.9,21.8 21.8,17.8 24.5,15.8C27.3,13.7 32,11.1 35,10.1C38.2,9 43.4,8.1 47.3,8.1ZM31,18.7C29.1,19.9 25.5,23 23.1,25.7C20.6,28.3 17.7,32.5 16.6,35C15,38.4 14.5,41.6 14.5,48C14.5,54.7 15,57.5 16.8,61.3C18,63.9 21.1,68.3 23.8,71.1C26.4,73.9 31,77.4 34,78.8C38.6,81.1 40.8,81.5 48,81.5C55.2,81.5 57.4,81.1 62,78.8C65,77.4 69.4,74.2 71.8,71.8C74.1,69.4 77.3,65 78.8,62C81.1,57.3 81.5,55.2 81.5,48C81.5,41.3 81,38.5 79.2,34.7C78,32.1 74.9,27.7 72.3,24.9C69.6,22.1 65.1,18.7 62,17.2C58,15.3 54.5,14.5 49.5,14.3C45.7,14.1 40.7,14.6 38.5,15.3C36.3,16 32.9,17.5 31,18.7ZM42.3,26C43.4,26 44.3,27.2 44.8,29C45.2,30.7 46.1,32.2 46.8,32.5C47.4,32.8 48.6,32.8 49.3,32.5C49.9,32.2 50.8,30.7 51.3,29C51.7,27.1 52.6,26 53.8,26C55.2,26 55.4,26.6 54.8,29.7C54.3,32.8 54.6,33.7 56.1,34.8C57.1,35.4 58.5,37.1 59,38.5C59.6,39.9 60.3,41 60.8,41C61.2,41 62.3,40.5 63.3,39.8C64.4,39 65.3,37 65.4,35C65.7,32.5 66.3,31.4 67.6,31.1C69.3,30.8 69.4,31.2 68.8,35.6C68.4,39 67.5,41 65.8,42.3C64.5,43.3 62.7,44.1 61.8,44C60.5,44 60,44.8 60,46.5C60,48.9 60.3,49 65.5,49C69.7,49 71,49.3 71,50.5C71,51.7 69.7,52 65.5,52C60.7,52 60,52.2 60,54C60,55.1 60.7,56 61.5,56C62.3,56 64.3,57.4 66,59C68.3,61.3 69,62.9 69,66C69,68.9 68.6,70 67.5,70C66.7,70 65.8,69.3 65.5,68.5C65.2,67.7 65,66 65,64.8C65,63.5 64.5,61.9 63.8,61.2C63.1,60.5 61.9,60 61.3,60C60.6,60 58.5,61.5 56.8,63.4C55,65.3 52.2,67.1 50.5,67.5C48.9,67.9 46.4,67.9 45,67.5C43.6,67.1 41,65.3 39.3,63.4C37.5,61.5 35.4,60 34.7,60C34,60 32.9,60.6 32.2,61.3C31.5,61.9 31,63.5 31,64.8C31,66 30.8,67.7 30.5,68.5C30.2,69.3 29.3,70 28.5,70C27.4,70 27,68.9 27,66C27,62.9 27.7,61.3 29.9,59C31.5,57.4 33.6,56 34.4,56C35.3,56 36,55.2 36,54C36,52.2 35.3,52 30.5,52C26.3,52 25,51.7 25,50.5C25,49.3 26.3,49 30.5,49C35.7,49 36,48.9 36,46.5C36,44.8 35.5,44 34.3,44C33.3,44.1 31.5,43.3 30.2,42.3C28.5,41 27.6,39 27.2,35.6C26.6,31.2 26.7,30.8 28.4,31.1C29.7,31.4 30.3,32.5 30.6,35C30.7,37 31.6,39 32.7,39.8C33.7,40.5 34.8,41 35.3,41C35.7,41 36.5,39.9 37,38.5C37.6,37.1 38.9,35.4 39.9,34.8C41.4,33.8 41.7,32.7 41.3,29.8C40.8,26.7 41,26 42.3,26Z"/>
</svg>
