<?xml version="1.0" encoding="UTF-8" standalone="no"?>
<!DOCTYPE svg PUBLIC "-//W3C//DTD SVG 1.1//EN" "http://www.w3.org/Graphics/SVG/1.1/DTD/svg11.dtd">
<svg width="100%" height="100%" viewBox="0 0 96 96" version="1.1" xmlns="http://www.w3.org/2000/svg" xmlns:xlink="http://www.w3.org/1999/xlink" xml:space="preserve" xmlns:serif="http://www.serif.com/" style="fill-rule:evenodd;clip-rule:evenodd;stroke-linejoin:round;stroke-miterlimit:2;">
    <path d="M48,96C74.51,96 96,74.51 96,48C96,21.49 74.51,0 48,0C21.49,0 0,21.49 0,48C0,74.51 21.49,96 48,96ZM60.3,9.909C56.3,8.609 51.5,7.909 47.3,8.009C43.4,8.009 38.2,8.909 35,10.009C32,11.009 27.3,13.609 24.5,15.709C21.8,17.709 17.9,21.709 15.8,24.409C13.8,27.209 11.2,32.209 10,35.709C8.9,39.109 8,44.509 8,47.709C8,50.809 8.9,56.309 10,59.909C11.1,63.509 13.7,68.609 15.8,71.409C17.9,74.209 21.8,78.109 24.5,80.109C27.3,82.209 32.3,84.709 35.8,85.909C39.3,87.009 44.7,87.909 48.3,87.909C51.9,87.909 57,87.109 60.5,85.909C63.8,84.809 68.7,82.209 71.5,80.109C74.2,78.109 78.1,74.209 80.2,71.409C82.2,68.709 84.8,63.609 86,60.209C87.1,56.709 88,51.309 88,48.209C88,45.009 87.1,39.509 86,35.909C84.9,32.309 82.3,27.209 80.2,24.409C78.1,21.709 74.2,17.709 71.5,15.709C68.7,13.609 63.7,11.109 60.3,9.909ZM19.8,29.409C22.4,25.209 25.3,22.309 29.1,19.909C32,18.009 36.3,15.909 38.5,15.209C40.7,14.509 45.7,14.009 49.5,14.209C54.5,14.409 58,15.209 62,17.109C65.1,18.609 69.6,22.009 72.3,24.809C74.9,27.609 78,32.009 79.2,34.609C81,38.409 81.5,41.209 81.5,47.909C81.5,54.609 81,57.409 79.2,61.109C78,63.809 74.9,68.209 72.3,71.009C69.6,73.809 65,77.309 62,78.709C57.4,81.009 55.2,81.409 48,81.409C40.8,81.409 38.6,81.009 34,78.709C31,77.309 26.4,73.809 23.8,71.009C21.1,68.209 18,63.809 16.9,61.209C15.7,58.509 14.5,53.909 14.2,50.909C14,47.909 14.2,43.209 14.9,40.409C15.5,37.709 17.7,32.709 19.8,29.409ZM48.424,25.111L48.4,25.109C45.7,24.909 43,25.109 42.5,25.509C42.1,25.909 41.7,27.509 41.8,29.109C41.9,30.609 41.3,32.609 40.5,33.409C39.2,34.709 38.6,34.709 35.5,33.409C33.6,32.609 31.6,32.109 31,32.409C30.5,32.709 29.1,34.809 27.9,37.209L25.8,41.409C30.6,45.709 32,47.409 32,47.909C32,48.409 30.6,50.109 28.9,51.709C25.9,54.309 25.9,54.509 27.3,57.909C28.1,59.809 29.4,62.009 30.3,62.709C31.7,63.709 32.7,63.709 35.5,62.709C37.833,61.843 39.333,61.743 40,62.409C40.6,62.909 41.4,65.009 41.8,66.909C42.142,68.404 42.337,69.26 42.87,69.751C43.585,70.409 44.906,70.409 48,70.409C51.094,70.409 52.415,70.409 53.13,69.751C53.663,69.26 53.858,68.404 54.2,66.909C54.6,65.009 55.4,62.909 56,62.409C56.667,61.743 58.167,61.843 60.5,62.709C63.5,63.709 64.3,63.709 66,62.209C67.1,61.209 68.6,59.109 69.3,57.609C70.4,55.009 70.3,54.509 67.3,51.809C65.5,50.209 64,48.609 64,48.209C64,47.709 65.4,46.009 67.1,44.409L70.1,41.409C66.9,34.809 65.6,32.709 65,32.409C64.5,32.109 62.5,32.509 60.8,33.309C58.6,34.309 57,34.409 56,33.809C55.2,33.309 54.3,31.209 54,29.209C53.501,25.416 53.4,25.409 48.424,25.111ZM42.5,53.409C40.9,51.809 40,49.809 40,47.909C40.1,46.009 41.1,43.809 42.5,42.409C44,40.809 46,39.909 48,39.909C49.9,39.909 51.9,40.809 53.5,42.409C55.1,44.009 56,46.009 56,47.909C56,49.709 55.1,51.909 53.5,53.409C52,55.009 50,55.909 48,55.909C46.1,55.909 44.1,55.009 42.5,53.409Z" style="fill:white;"/>
    <path d="M47.3,8.1C51.5,8 56.3,8.7 60.3,10C63.7,11.2 68.7,13.7 71.5,15.8C74.2,17.8 78.1,21.8 80.2,24.5C82.3,27.3 84.9,32.4 86,36C87.1,39.6 88,45.1 88,48.3C88,51.4 87.1,56.8 86,60.3C84.8,63.7 82.2,68.8 80.2,71.5C78.1,74.3 74.2,78.2 71.5,80.2C68.7,82.3 63.8,84.9 60.5,86C57,87.2 51.9,88 48.3,88C44.7,88 39.3,87.1 35.8,86C32.3,84.8 27.3,82.3 24.5,80.2C21.8,78.2 17.9,74.3 15.8,71.5C13.7,68.7 11.1,63.6 10,60C8.9,56.4 8,50.9 8,47.8C8,44.6 8.9,39.2 10,35.8C11.2,32.3 13.8,27.3 15.8,24.5C17.9,21.8 21.8,17.8 24.5,15.8C27.3,13.7 32,11.1 35,10.1C38.2,9 43.4,8.1 47.3,8.1ZM29.1,20C25.3,22.4 22.4,25.3 19.8,29.5C17.7,32.8 15.5,37.8 14.9,40.5C14.2,43.3 14,48 14.2,51C14.5,54 15.7,58.6 16.9,61.3C18,63.9 21.1,68.3 23.8,71.1C26.4,73.9 31,77.4 34,78.8C38.6,81.1 40.8,81.5 48,81.5C55.2,81.5 57.4,81.1 62,78.8C65,77.4 69.6,73.9 72.3,71.1C74.9,68.3 78,63.9 79.2,61.2C81,57.5 81.5,54.7 81.5,48C81.5,41.3 81,38.5 79.2,34.7C78,32.1 74.9,27.7 72.3,24.9C69.6,22.1 65.1,18.7 62,17.2C58,15.3 54.5,14.5 49.5,14.3C45.7,14.1 40.7,14.6 38.5,15.3C36.3,16 32,18.1 29.1,20ZM48.4,25.2C53.4,25.5 53.5,25.5 54,29.3C54.3,31.3 55.2,33.4 56,33.9C57,34.5 58.6,34.4 60.8,33.4C62.5,32.6 64.5,32.2 65,32.5C65.6,32.8 66.9,34.9 70.1,41.5L67.1,44.5C65.4,46.1 64,47.8 64,48.3C64,48.7 65.5,50.3 67.3,51.9C70.3,54.6 70.4,55.1 69.3,57.7C68.6,59.2 67.1,61.3 66,62.3C64.3,63.8 63.5,63.8 60.5,62.8C58.167,61.933 56.667,61.833 56,62.5C55.4,63 54.6,65.1 54.2,67C53.4,70.5 53.4,70.5 48,70.5C42.6,70.5 42.6,70.5 41.8,67C41.4,65.1 40.6,63 40,62.5C39.333,61.833 37.833,61.933 35.5,62.8C32.7,63.8 31.7,63.8 30.3,62.8C29.4,62.1 28.1,59.9 27.3,58C25.9,54.6 25.9,54.4 28.9,51.8C30.6,50.2 32,48.5 32,48C32,47.5 30.6,45.8 25.8,41.5L27.9,37.3C29.1,34.9 30.5,32.8 31,32.5C31.6,32.2 33.6,32.7 35.5,33.5C38.6,34.8 39.2,34.8 40.5,33.5C41.3,32.7 41.9,30.7 41.8,29.2C41.7,27.6 42.1,26 42.5,25.6C43,25.2 45.7,25 48.4,25.2ZM40,48C40,49.9 40.9,51.9 42.5,53.5C44.1,55.1 46.1,56 48,56C50,56 52,55.1 53.5,53.5C55.1,52 56,49.8 56,48C56,46.1 55.1,44.1 53.5,42.5C51.9,40.9 49.9,40 48,40C46,40 44,40.9 42.5,42.5C41.1,43.9 40.1,46.1 40,48Z"/>
</svg>
