<?xml version="1.0" encoding="UTF-8" standalone="no"?>
<!DOCTYPE svg PUBLIC "-//W3C//DTD SVG 1.1//EN" "http://www.w3.org/Graphics/SVG/1.1/DTD/svg11.dtd">
<svg width="100%" height="100%" viewBox="0 0 96 96" version="1.1" xmlns="http://www.w3.org/2000/svg" xmlns:xlink="http://www.w3.org/1999/xlink" xml:space="preserve" xmlns:serif="http://www.serif.com/" style="fill-rule:evenodd;clip-rule:evenodd;stroke-linejoin:round;stroke-miterlimit:2;">
    <path d="M47.3,8.1C51.5,8 56.3,8.7 60.3,10C63.7,11.2 68.7,13.7 71.5,15.8C74.2,17.8 78.1,21.8 80.2,24.5C82.3,27.3 84.9,32.4 86,36C87.1,39.6 88,45.1 88,48.3C88,51.4 87.1,56.8 86,60.3C84.8,63.7 82.2,68.8 80.2,71.5C78.1,74.3 74.2,78.2 71.5,80.2C68.7,82.3 63.8,84.9 60.5,86C57,87.2 51.9,88 48.3,88C44.7,88 39.3,87.1 35.8,86C32.3,84.8 27.3,82.3 24.5,80.2C21.8,78.2 17.9,74.3 15.8,71.5C13.7,68.7 11.1,63.6 10,60C8.9,56.4 8,50.9 8,47.8C8,44.6 8.9,39.2 10,35.8C11.2,32.3 13.8,27.3 15.8,24.5C17.9,21.8 21.8,17.8 24.5,15.8C27.3,13.7 32,11.1 35,10.1C38.2,9 43.4,8.1 47.3,8.1ZM29.1,20C25.8,22.2 22.3,25.6 20.1,29C18,32 15.8,37 15.1,40C14.3,43 13.9,48 14.2,51C14.5,54 15.9,59.1 17.4,62.3C18.8,65.4 20.3,68 20.8,68C21.2,68 22.6,66.4 24,64.5C25.4,62.7 27.6,60.6 29,60C30.7,59.2 34.4,59.1 41.2,59.7C48.5,60.3 51.1,60.9 51.5,62C51.8,62.8 51.4,64.1 50.8,64.8C50.1,65.5 47.3,66.1 44.6,66.3C41.7,66.4 39.5,67 39.3,67.7C39.1,68.6 40.7,69 45,69C49.7,69 51.4,68.6 53,67C54.1,65.9 55,64.1 55,63C55,61.667 56.333,60.333 59,59C61.2,57.9 64,57.1 65.2,57.2C66.4,57.4 67.5,58.1 67.7,58.8C67.9,59.4 64.7,63.4 60.8,67.6C56.8,71.8 52.4,75.8 51,76.5C49.3,77.4 46.1,77.6 40.7,77.1C34.9,76.7 33,76.8 33,77.7C33,78.4 35.6,79.7 38.8,80.6C42.8,81.8 46.5,82.1 51,81.7C54.9,81.3 59.5,80.1 62.5,78.6C65.3,77.3 69.6,73.9 72.3,71.1C74.9,68.3 78,63.9 79.2,61.2C81,57.5 81.5,54.7 81.5,48C81.5,40.8 81.1,38.7 78.8,34C77.3,31 74.1,26.6 71.8,24.2C69.4,21.8 65,18.7 62,17.2C58.1,15.3 54.5,14.5 49.5,14.3C45.7,14.1 40.7,14.6 38.5,15.3C36.3,16 32.1,18.1 29.1,20ZM51.5,26C53.1,26 55,27.2 56.7,29.2C58.1,31 60.3,33 61.4,33.5C62.7,34.2 63.5,35.5 63.5,39.5L47.8,39.7C32.6,40 32,39.9 32,38C32,36.9 34,34 36.5,31.5C38.9,29 41.7,27 42.7,27C43.7,26.9 45.3,27.7 46.3,28.7C47.6,30 48,31.3 47.6,33.2C47.3,34.8 47.4,36 48,36C48.6,36 49.1,35.2 49.3,34.2C49.5,33.3 49.3,31.5 48.8,30.2C48.4,29 48.2,27.6 48.5,27C48.9,26.4 50.2,26 51.5,26ZM39.3,36C38,36 37.8,36.3 38.5,37.1C39.1,37.7 40.5,37.9 41.8,37.6C43.1,37.2 44,36.2 44,35C44,33.9 43.6,33 43.1,33C42.6,33 41.9,33.7 41.6,34.5C41.3,35.3 40.2,36 39.3,36ZM54.8,37.7C56,37.9 57,37.5 57,37C57,36.5 56.3,36 55.5,36C54.7,36 54,35.3 54,34.5C54,33.7 53.5,33 52.9,33C52.3,33 52,34 52.2,35.2C52.4,36.7 53.3,37.6 54.8,37.7ZM63.5,42.5L63.5,45C63.5,46.5 62.7,47.8 61.4,48.5C60.3,49 58.1,51 56.7,52.7C54.9,54.8 53.1,56 51.5,56C50.1,56 48.8,55.5 48.5,55C48.2,54.5 48.4,53 48.9,51.7C49.6,50.1 49.5,48.9 48.4,47.5C47.1,45.6 47,45.7 47.6,48.5C48,50.7 47.7,52 46.3,53.3C45.3,54.3 43.7,55.1 42.8,55C41.8,55 39,53 36.5,50.5C34,48 32,45.1 32,44C32.1,42 32.6,42 63.5,42.5ZM39.5,46C40.3,46 41.4,46.8 41.9,47.7C42.4,48.7 43.2,49.1 43.7,48.7C44.1,48.3 44,47.1 43.4,46.2C42.8,45.3 41.6,44.4 40.8,44.2C39.9,44 39,44.4 38.6,44.9C38.3,45.5 38.7,46 39.5,46ZM51.8,47.2C51.9,48.2 52.5,49 53,49C53.6,49 54,48.3 54,47.5C54,46.7 54.7,46 55.5,46C56.3,46 57,45.5 57,45C57,44.5 56.2,44 55.2,44C54.2,44 53,44.3 52.5,44.7C52,45 51.7,46.2 51.8,47.2Z"/>
    <path d="M48,96C74.51,96 96,74.51 96,48C96,21.49 74.51,0 48,0C21.49,0 0,21.49 0,48C0,74.51 21.49,96 48,96ZM60.3,9.909C56.3,8.609 51.5,7.909 47.3,8.009C43.4,8.009 38.2,8.909 35,10.009C32,11.009 27.3,13.609 24.5,15.709C21.8,17.709 17.9,21.709 15.8,24.409C13.8,27.209 11.2,32.209 10,35.709C8.9,39.109 8,44.509 8,47.709C8,50.809 8.9,56.309 10,59.909C11.1,63.509 13.7,68.609 15.8,71.409C17.9,74.209 21.8,78.109 24.5,80.109C27.3,82.209 32.3,84.709 35.8,85.909C39.3,87.009 44.7,87.909 48.3,87.909C51.9,87.909 57,87.109 60.5,85.909C63.8,84.809 68.7,82.209 71.5,80.109C74.2,78.109 78.1,74.209 80.2,71.409C82.2,68.709 84.8,63.609 86,60.209C87.1,56.709 88,51.309 88,48.209C88,45.009 87.1,39.509 86,35.909C84.9,32.309 82.3,27.209 80.2,24.409C78.1,21.709 74.2,17.709 71.5,15.709C68.7,13.609 63.7,11.109 60.3,9.909ZM20.1,28.909C22.3,25.509 25.8,22.109 29.1,19.909C32.1,18.009 36.3,15.909 38.5,15.209C40.7,14.509 45.7,14.009 49.5,14.209C54.5,14.409 58.1,15.209 62,17.109C65,18.609 69.4,21.709 71.8,24.109C74.1,26.509 77.3,30.909 78.8,33.909C81.1,38.609 81.5,40.709 81.5,47.909C81.5,54.609 81,57.409 79.2,61.109C78,63.809 74.9,68.209 72.3,71.009C69.6,73.809 65.3,77.209 62.5,78.509C59.5,80.009 54.9,81.209 51,81.609C46.5,82.009 42.8,81.709 38.8,80.509C35.6,79.609 33,78.309 33,77.609C33,76.709 34.9,76.609 40.7,77.009C46.1,77.509 49.3,77.309 51,76.409C52.4,75.709 56.8,71.709 60.8,67.509C64.7,63.309 67.9,59.309 67.7,58.709C67.5,58.009 66.4,57.309 65.2,57.109C64,57.009 61.2,57.809 59,58.909C56.333,60.243 55,61.576 55,62.909C55,64.009 54.1,65.809 53,66.909C51.4,68.509 49.7,68.909 45,68.909C40.7,68.909 39.1,68.509 39.3,67.609C39.5,66.909 41.7,66.309 44.6,66.209C47.3,66.009 50.1,65.409 50.8,64.709C51.4,64.009 51.8,62.709 51.5,61.909C51.1,60.809 48.5,60.209 41.2,59.609C34.4,59.009 30.7,59.109 29,59.909C27.6,60.509 25.4,62.609 24,64.409C22.6,66.309 21.2,67.909 20.8,67.909C20.3,67.909 18.8,65.309 17.4,62.209C15.9,59.009 14.5,53.909 14.2,50.909C13.9,47.909 14.3,42.909 15.1,39.909C15.8,36.909 18,31.909 20.1,28.909ZM56.7,29.109C55,27.109 53.1,25.909 51.5,25.909C50.2,25.909 48.9,26.309 48.5,26.909C48.2,27.509 48.4,28.909 48.8,30.109C49.3,31.409 49.5,33.209 49.3,34.109C49.1,35.109 48.6,35.909 48,35.909C47.4,35.909 47.3,34.709 47.6,33.109C48,31.209 47.6,29.909 46.3,28.609C45.3,27.609 43.7,26.809 42.7,26.909C41.7,26.909 38.9,28.909 36.5,31.409C34,33.909 32,36.809 32,37.909C32,39.809 32.6,39.909 47.8,39.609L63.5,39.409C63.5,35.409 62.7,34.109 61.4,33.409C60.3,32.909 58.1,30.909 56.7,29.109ZM38.5,37.009C37.8,36.209 38,35.909 39.3,35.909C40.2,35.909 41.3,35.209 41.6,34.409C41.9,33.609 42.6,32.909 43.1,32.909C43.6,32.909 44,33.809 44,34.909C44,36.109 43.1,37.109 41.8,37.509C40.5,37.809 39.1,37.609 38.5,37.009ZM57,36.909C57,37.409 56,37.809 54.8,37.609C53.3,37.509 52.4,36.609 52.2,35.109C52,33.909 52.3,32.909 52.9,32.909C53.5,32.909 54,33.609 54,34.409C54,35.209 54.7,35.909 55.5,35.909C56.3,35.909 57,36.409 57,36.909ZM63.5,44.909L63.5,42.409C32.6,41.909 32.1,41.909 32,43.909C32,45.009 34,47.909 36.5,50.409C39,52.909 41.8,54.909 42.8,54.909C43.7,55.009 45.3,54.209 46.3,53.209C47.7,51.909 48,50.609 47.6,48.409C47,45.609 47.1,45.509 48.4,47.409C49.5,48.809 49.6,50.009 48.9,51.609C48.4,52.909 48.2,54.409 48.5,54.909C48.8,55.409 50.1,55.909 51.5,55.909C53.1,55.909 54.9,54.709 56.7,52.609C58.1,50.909 60.3,48.909 61.4,48.409C62.7,47.709 63.5,46.409 63.5,44.909ZM41.9,47.609C41.4,46.709 40.3,45.909 39.5,45.909C38.7,45.909 38.3,45.409 38.6,44.809C39,44.309 39.9,43.909 40.8,44.109C41.6,44.309 42.8,45.209 43.4,46.109C44,47.009 44.1,48.209 43.7,48.609C43.2,49.009 42.4,48.609 41.9,47.609ZM53,48.909C52.5,48.909 51.9,48.109 51.8,47.109C51.7,46.109 52,44.909 52.5,44.609C53,44.209 54.2,43.909 55.2,43.909C56.2,43.909 57,44.409 57,44.909C57,45.409 56.3,45.909 55.5,45.909C54.7,45.909 54,46.609 54,47.409C54,48.209 53.6,48.909 53,48.909Z" style="fill:white;"/>
</svg>
