<?xml version="1.0" encoding="UTF-8" standalone="no"?>
<!DOCTYPE svg PUBLIC "-//W3C//DTD SVG 1.1//EN" "http://www.w3.org/Graphics/SVG/1.1/DTD/svg11.dtd">
<svg width="100%" height="100%" viewBox="0 0 192 192" version="1.1" xmlns="http://www.w3.org/2000/svg" xmlns:xlink="http://www.w3.org/1999/xlink" xml:space="preserve" xmlns:serif="http://www.serif.com/" style="fill-rule:evenodd;clip-rule:evenodd;stroke-linejoin:round;stroke-miterlimit:2;">
    <path id="path1" d="M33.843,166.204C33.843,166.204 69.545,128.761 87.916,112.316L63.924,111.717C60.173,111.623 57.652,103.799 63.526,100.595C76.114,100.572 92.194,100.095 103.524,100.551C105.633,101.15 106.613,101.956 107.2,104.608C109.079,113.109 106.493,132.611 108.506,142.512C105.28,151.904 96.337,148.324 96.25,143.064C96.135,136.024 95.651,120.425 95.651,120.425C51.081,164.61 48.437,168.097 40.591,175.341C34.973,177.554 29.188,171.144 33.843,166.204ZM52,175.48L64.146,164.003L139.04,164.132C143.315,164.139 147.756,160.091 147.975,154.723L148.19,36.565C147.351,31.12 143.235,28.511 138.729,27.844L55.927,28.066C50.691,28.837 44.894,30.909 43.862,37.358L44,144.016L32.308,155.697L32.712,34.672C34.521,23.775 39.367,18.537 52.761,16.211L144.452,17.232C155.104,20.224 159.052,28.671 160.065,38.019L159.852,155.173C158.433,169.839 145.76,176.409 133.213,176.106C106.755,176.708 52,175.48 52,175.48Z" style="fill-rule:nonzero;"/>
</svg>
