<?xml version="1.0" encoding="UTF-8" standalone="no"?>
<!DOCTYPE svg PUBLIC "-//W3C//DTD SVG 1.1//EN" "http://www.w3.org/Graphics/SVG/1.1/DTD/svg11.dtd">
<svg width="100%" height="100%" viewBox="0 0 96 96" version="1.1" xmlns="http://www.w3.org/2000/svg" xmlns:xlink="http://www.w3.org/1999/xlink" xml:space="preserve" xmlns:serif="http://www.serif.com/" style="fill-rule:evenodd;clip-rule:evenodd;stroke-linejoin:round;stroke-miterlimit:2;">
    <path d="M47.3,8.1C51.5,8 56.3,8.7 60.3,10C63.7,11.2 68.7,13.7 71.5,15.8C74.2,17.8 78.1,21.8 80.2,24.5C82.3,27.3 84.9,32.4 86,36C87.1,39.6 88,45.1 88,48.3C88,51.4 87.1,56.8 86,60.3C84.8,63.7 82.2,68.8 80.2,71.5C78.1,74.3 74.2,78.2 71.5,80.3C68.7,82.3 63.6,84.9 60,86C56.4,87.1 50.9,88 47.8,88C44.6,88 39.2,87.1 35.8,86C32.3,84.8 27.3,82.3 24.5,80.2C21.8,78.2 17.9,74.3 15.8,71.5C13.7,68.7 11.1,63.6 10,60C8.9,56.4 8,50.9 8,47.7C8,44.6 8.9,39.2 10,35.8C11.2,32.3 13.8,27.3 15.8,24.5C17.9,21.8 21.8,17.8 24.5,15.8C27.3,13.7 32,11.1 35,10.1C38.2,9 43.4,8.1 47.3,8.1ZM28.1,20.5C25.8,22.1 22.3,25.8 20.4,28.5C18.5,31.3 16.3,35.8 15.5,38.5C14.6,41.3 14,45.5 14,48C14,50.5 14.7,54.8 15.5,57.5C16.3,60.3 18.5,64.8 20.3,67.5C22.2,70.3 25.4,73.7 27.6,75.2C29.7,76.7 33.2,78.6 35.3,79.5L39,81C39,68.6 39,68.5 36,67.7C34.1,67.3 32.6,66 31.8,64.3C31.2,62.7 29.9,60.7 29.1,59.7C27.7,58.2 27.7,57.9 29,57.9C29.8,57.9 31.6,59.1 33,60.5C34.4,61.9 36.2,63 37,63C37.8,63 39.5,61.7 40.8,60L43,57C37.2,54.3 34.5,51.9 33.2,50C31.3,47.1 31,45.7 31.4,42C31.8,39.5 32.2,35 32.5,32C32.7,29 33.2,26.3 33.5,26C33.8,25.7 35.4,26.2 37,27C38.7,27.8 40.1,28.8 40,29.3C40,29.7 43,29.9 46.8,29.7C51,29.5 54.5,28.8 56.3,27.7C57.8,26.8 59.6,26.2 60.3,26.4C60.9,26.6 61.8,29.3 62.2,32.6C62.7,35.9 63.2,40.3 63.5,42.5C63.9,45.5 63.6,47.3 62,49.8C60.9,51.5 58.2,53.9 56,55C52.1,57 52,57 53.8,59.1C55.1,60.7 55.6,63.4 55.8,71.1C56,80.8 56,81 58.3,80.4C59.5,80.1 62.3,78.8 64.5,77.5C66.7,76.3 70.5,73 72.9,70.4C75.4,67.7 78.3,63.5 79.4,61C81,57.6 81.5,54.4 81.5,48C81.5,41.3 81,38.5 79.2,34.7C78,32.1 74.9,27.7 72.3,24.9C69.6,22.1 65.1,18.7 62,17.2C58.1,15.4 54.5,14.5 49.5,14.3C44.6,14 41,14.5 37.4,15.7C34.7,16.7 30.5,18.9 28.1,20.5Z"/>
    <path d="M48,96C74.51,96 96,74.51 96,48C96,21.49 74.51,0 48,0C21.49,0 0,21.49 0,48C0,74.51 21.49,96 48,96ZM60.3,9.909C56.3,8.609 51.5,7.909 47.3,8.009C43.4,8.009 38.2,8.909 35,10.009C32,11.009 27.3,13.609 24.5,15.709C21.8,17.709 17.9,21.709 15.8,24.409C13.8,27.209 11.2,32.209 10,35.709C8.9,39.109 8,44.509 8,47.609C8,50.809 8.9,56.309 10,59.909C11.1,63.509 13.7,68.609 15.8,71.409C17.9,74.209 21.8,78.109 24.5,80.109C27.3,82.209 32.3,84.709 35.8,85.909C39.2,87.009 44.6,87.909 47.8,87.909C50.9,87.909 56.4,87.009 60,85.909C63.6,84.809 68.7,82.209 71.5,80.209C74.2,78.109 78.1,74.209 80.2,71.409C82.2,68.709 84.8,63.609 86,60.209C87.1,56.709 88,51.309 88,48.209C88,45.009 87.1,39.509 86,35.909C84.9,32.309 82.3,27.209 80.2,24.409C78.1,21.709 74.2,17.709 71.5,15.709C68.7,13.609 63.7,11.109 60.3,9.909ZM20.4,28.409C22.3,25.709 25.8,22.009 28.1,20.409C30.5,18.809 34.7,16.609 37.4,15.609C41,14.409 44.6,13.909 49.5,14.209C54.5,14.409 58.1,15.309 62,17.109C65.1,18.609 69.6,22.009 72.3,24.809C74.9,27.609 78,32.009 79.2,34.609C81,38.409 81.5,41.209 81.5,47.909C81.5,54.309 81,57.509 79.4,60.909C78.3,63.409 75.4,67.609 72.9,70.309C70.5,72.909 66.7,76.209 64.5,77.409C62.3,78.709 59.5,80.009 58.3,80.309C56.004,80.908 56,80.71 55.801,71.061L55.8,71.009C55.6,63.309 55.1,60.609 53.8,59.009C52.03,56.944 52.097,56.91 55.808,55.008C55.871,54.976 55.935,54.943 56,54.909C58.2,53.809 60.9,51.409 62,49.709C63.6,47.209 63.9,45.409 63.5,42.409C63.395,41.638 63.265,40.595 63.119,39.425C62.849,37.258 62.525,34.652 62.2,32.509C61.8,29.209 60.9,26.509 60.3,26.309C59.6,26.109 57.8,26.709 56.3,27.609C54.5,28.709 51,29.409 46.8,29.609C43,29.809 40,29.609 40,29.209C40.1,28.709 38.7,27.709 37,26.909C35.4,26.109 33.8,25.609 33.5,25.909C33.2,26.209 32.7,28.909 32.5,31.909C32.443,32.48 32.382,33.106 32.319,33.761C32.048,36.55 31.724,39.885 31.4,41.909C31,45.609 31.3,47.009 33.2,49.909C34.5,51.809 37.2,54.209 43,56.909L40.8,59.909C39.5,61.609 37.8,62.909 37,62.909C36.2,62.909 34.4,61.809 33,60.409C31.6,59.009 29.8,57.809 29,57.809C27.7,57.809 27.7,58.109 29.1,59.609C29.9,60.609 31.2,62.609 31.8,64.209C32.6,65.909 34.1,67.209 36,67.609C39,68.409 39,68.509 39,80.909L35.3,79.409C33.2,78.509 29.7,76.609 27.6,75.109C25.4,73.609 22.2,70.209 20.3,67.409C18.5,64.709 16.3,60.209 15.5,57.409C14.7,54.709 14,50.409 14,47.909C14,45.409 14.6,41.209 15.5,38.409C16.3,35.709 18.5,31.209 20.4,28.409Z" style="fill:white;"/>
</svg>
