<?xml version="1.0" encoding="UTF-8" standalone="no"?>
<!DOCTYPE svg PUBLIC "-//W3C//DTD SVG 1.1//EN" "http://www.w3.org/Graphics/SVG/1.1/DTD/svg11.dtd">
<svg width="100%" height="100%" viewBox="0 0 96 96" version="1.1" xmlns="http://www.w3.org/2000/svg" xmlns:xlink="http://www.w3.org/1999/xlink" xml:space="preserve" xmlns:serif="http://www.serif.com/" style="fill-rule:evenodd;clip-rule:evenodd;stroke-linejoin:round;stroke-miterlimit:2;">
    <path d="M47.3,8.01C50.4,7.91 55.4,8.61 58.3,9.41C61.1,10.21 66.4,12.81 69.9,15.11C73.9,17.71 77.8,21.51 80.2,24.91C82.3,27.91 85,33.31 86.1,36.91C87.2,40.51 88,45.41 88,47.91C88,50.41 87.2,55.31 86.1,58.91C85,62.51 82.3,67.91 80.2,70.91C77.8,74.31 73.9,78.11 69.9,80.71C66.4,83.01 61.1,85.61 58.3,86.41C55.4,87.21 50.8,87.91 48,87.91C45.3,87.91 40.2,87.01 36.8,85.91C33.3,84.81 28.1,82.21 25.1,80.21C22.1,78.11 18,73.91 15.8,70.91C13.7,67.91 11,62.51 9.9,58.91C8.8,55.31 8,50.31 8,47.61C8,45.01 8.9,40.11 10,36.71C11.1,33.21 13.5,28.21 15.4,25.41C17.3,22.71 20.6,19.01 22.7,17.31C24.8,15.61 28.1,13.41 30,12.41C31.9,11.41 35.3,10.01 37.5,9.31C39.7,8.61 44.1,8.01 47.3,8.01ZM35.5,16.61C33.3,17.51 29.7,19.71 27.5,21.41C25.3,23.21 21.7,27.21 19.5,30.41C15.6,36.01 15.5,36.31 15.1,46.31C14.8,55.61 15,56.81 17.4,61.71C18.8,64.51 21.7,68.71 23.8,71.01C25.8,73.21 30.2,76.41 33.5,78.01C38.7,80.61 40.6,80.91 48,80.91C55.4,80.91 57.3,80.61 62.5,78.01C65.8,76.41 70.2,73.21 72.3,71.01C74.3,68.71 77.1,64.71 78.5,61.91C80.6,57.71 81,55.51 81,47.91C81,41.11 80.5,37.91 79,34.61C78,32.31 75.2,28.21 72.8,25.51C70.1,22.51 66.2,19.61 62.5,17.81C58.5,15.91 54.3,14.81 50,14.51C46.4,14.21 42.6,14.21 41.5,14.51C40.4,14.81 37.7,15.71 35.5,16.61ZM51.9,25.01C54.4,25.31 58.4,26.91 60.8,28.51C63.2,30.11 66.4,33.21 67.8,35.41C70.2,39.01 70.5,40.31 70.5,48.01C70.5,55.61 70.2,57.01 67.8,60.71C66.2,63.01 63.3,66.01 61.3,67.41C59.2,68.71 55.5,70.21 53,70.71C50.5,71.11 46.3,71.11 43.5,70.71C40.6,70.31 36.9,68.71 34.7,67.21C32.6,65.61 29.7,62.61 28.2,60.41C26.5,57.71 25.5,54.71 25.3,51.11C25,46.51 25.2,45.91 27,45.91C28.6,45.91 29.3,47.11 30.6,51.71C31.7,55.41 33.3,58.41 35.4,60.41C37.1,62.11 40.8,64.01 43.5,64.81C47.4,65.91 49.3,65.91 52.3,65.01C54.3,64.41 57.6,62.41 59.7,60.71C61.7,58.91 63.9,55.91 64.7,54.21C65.4,52.41 66,49.41 66,47.71C66,45.91 65,42.41 63.7,39.91C62.3,37.01 60,34.51 57,32.71C54.1,30.91 51.1,29.91 48.8,29.91C46.7,29.91 43.2,30.61 41,31.41C38.8,32.21 37,33.41 37,33.91C37,34.41 37.7,35.11 38.5,35.41C39.3,35.71 40,36.61 40,37.41C40,38.21 39.3,39.11 38.5,39.41C37.7,39.71 34.8,39.91 27,39.91L27,33.91C27,30.11 27.5,27.71 28.3,27.31C28.9,26.91 30.4,27.21 31.5,27.91C33.1,28.91 34,28.81 36,27.51C37.4,26.61 40.5,25.61 42.9,25.11C45.4,24.71 49.4,24.61 51.9,25.01ZM48.2,34.91C48.6,34.91 49.2,35.91 49.5,37.21C49.7,38.41 50.1,41.21 50.2,43.41C50.5,47.31 50.6,47.41 54.3,47.71C57.3,47.91 58,48.31 58,49.91C58,51.01 57.3,52.11 56.5,52.41C55.7,52.71 53,52.91 46,52.91L45.8,44.61C45.7,40.01 46,35.91 46.5,35.61C47,35.21 47.7,34.91 48.2,34.91Z"/>
    <path d="M48,96C74.51,96 96,74.51 96,48C96,21.49 74.51,0 48,0C21.49,0 0,21.49 0,48C0,74.51 21.49,96 48,96ZM58.3,9.41C55.4,8.61 50.4,7.91 47.3,8.01C44.1,8.01 39.7,8.61 37.5,9.31C35.3,10.01 31.9,11.41 30,12.41C28.1,13.41 24.8,15.61 22.7,17.31C20.6,19.01 17.3,22.71 15.4,25.41C13.5,28.21 11.1,33.21 10,36.71C8.9,40.11 8,45.01 8,47.61C8,50.31 8.8,55.31 9.9,58.91C11,62.51 13.7,67.91 15.8,70.91C18,73.91 22.1,78.11 25.1,80.21C28.1,82.21 33.3,84.81 36.8,85.91C40.2,87.01 45.3,87.91 48,87.91C50.8,87.91 55.4,87.21 58.3,86.41C61.1,85.61 66.4,83.01 69.9,80.71C73.9,78.11 77.8,74.31 80.2,70.91C82.3,67.91 85,62.51 86.1,58.91C87.2,55.31 88,50.41 88,47.91C88,45.41 87.2,40.51 86.1,36.91C85,33.31 82.3,27.91 80.2,24.91C77.8,21.51 73.9,17.71 69.9,15.11C66.4,12.81 61.1,10.21 58.3,9.41ZM27.5,21.41C29.7,19.71 33.3,17.51 35.5,16.61C37.7,15.71 40.4,14.81 41.5,14.51C42.6,14.21 46.4,14.21 50,14.51C54.3,14.81 58.5,15.91 62.5,17.81C66.2,19.61 70.1,22.51 72.8,25.51C75.2,28.21 78,32.31 79,34.61C80.5,37.91 81,41.11 81,47.91C81,55.51 80.6,57.71 78.5,61.91C77.1,64.71 74.3,68.71 72.3,71.01C70.2,73.21 65.8,76.41 62.5,78.01C57.3,80.61 55.4,80.91 48,80.91C40.6,80.91 38.7,80.61 33.5,78.01C30.2,76.41 25.8,73.21 23.8,71.01C21.7,68.71 18.8,64.51 17.4,61.71C15,56.81 14.8,55.61 15.1,46.31C15.5,36.31 15.6,36.01 19.5,30.41C21.7,27.21 25.3,23.21 27.5,21.41ZM60.8,28.51C58.4,26.91 54.4,25.31 51.9,25.01C49.4,24.61 45.4,24.71 42.9,25.11C40.5,25.61 37.4,26.61 36,27.51C34,28.81 33.1,28.91 31.5,27.91C30.4,27.21 28.9,26.91 28.3,27.31C27.5,27.71 27,30.11 27,33.91L27,39.91C34.8,39.91 37.7,39.71 38.5,39.41C39.3,39.11 40,38.21 40,37.41C40,36.61 39.3,35.71 38.5,35.41C37.7,35.11 37,34.41 37,33.91C37,33.41 38.8,32.21 41,31.41C43.2,30.61 46.7,29.91 48.8,29.91C51.1,29.91 54.1,30.91 57,32.71C60,34.51 62.3,37.01 63.7,39.91C65,42.41 66,45.91 66,47.71C66,49.41 65.4,52.41 64.7,54.21C63.9,55.91 61.7,58.91 59.7,60.71C57.6,62.41 54.3,64.41 52.3,65.01C49.3,65.91 47.4,65.91 43.5,64.81C40.8,64.01 37.1,62.11 35.4,60.41C33.3,58.41 31.7,55.41 30.6,51.71C29.3,47.11 28.6,45.91 27,45.91C25.2,45.91 25,46.51 25.3,51.11C25.5,54.71 26.5,57.71 28.2,60.41C29.7,62.61 32.6,65.61 34.7,67.21C36.9,68.71 40.6,70.31 43.5,70.71C46.3,71.11 50.5,71.11 53,70.71C55.5,70.21 59.2,68.71 61.3,67.41C63.3,66.01 66.2,63.01 67.8,60.71C70.2,57.01 70.5,55.61 70.5,48.01C70.5,40.31 70.2,39.01 67.8,35.41C66.4,33.21 63.2,30.11 60.8,28.51ZM49.5,37.21C49.2,35.91 48.6,34.91 48.2,34.91C47.7,34.91 47,35.21 46.5,35.61C46,35.91 45.7,40.01 45.8,44.61L46,52.91C53,52.91 55.7,52.71 56.5,52.41C57.3,52.11 58,51.01 58,49.91C58,48.31 57.3,47.91 54.3,47.71C50.6,47.41 50.5,47.31 50.2,43.41C50.1,41.21 49.7,38.41 49.5,37.21Z" style="fill:white;"/>
</svg>