<?xml version="1.0" encoding="UTF-8" standalone="no"?>
<!DOCTYPE svg PUBLIC "-//W3C//DTD SVG 1.1//EN" "http://www.w3.org/Graphics/SVG/1.1/DTD/svg11.dtd">
<svg width="100%" height="100%" viewBox="0 0 192 192" version="1.1" xmlns="http://www.w3.org/2000/svg" xmlns:xlink="http://www.w3.org/1999/xlink" xml:space="preserve" xmlns:serif="http://www.serif.com/" style="fill-rule:evenodd;clip-rule:evenodd;stroke-linejoin:round;stroke-miterlimit:2;">
    <path id="path1" d="M112.182,19.977C101.775,19.981 91.365,20.146 80.963,20.145C75.079,20.438 68.34,20.283 62.848,22.287C56.951,24.439 53.053,30.68 52.713,37.359C52.254,46.378 52.09,55.41 52.037,64.439C52.231,88.224 51.438,112.047 52.881,135.801C53.292,142.57 61.781,150.888 68,151L68.211,151.16C89.108,152.583 110.102,151.826 131.037,151.855C136.921,151.562 143.178,152.141 148.174,149.014C154.072,146.862 157.284,140.517 159.287,134.641C160.454,109.463 159.831,84.248 159.914,59.055C159.55,51.354 159.406,42.286 158.572,35.719C158.567,29.736 151.007,21.241 143.381,20.77C132.991,20.127 122.588,19.972 112.182,19.977ZM102.156,31.977C112.336,31.949 122.517,32.07 132.689,32.287C138.672,32.166 147.343,32.234 147.375,40.23C148.275,67.208 148.124,94.223 147.715,121.213C147.02,127.299 149.514,136.777 142,139L141.801,139.16L140.521,139.35C118.34,140.328 96.107,140.17 73.914,139.531C67.011,139.332 64.562,134.485 64.404,126.818C63.884,101.566 63.846,76.295 64.266,51.039C64.825,44.374 62.66,33.839 71.639,32.551C81.799,32.178 91.977,32.004 102.156,31.977ZM43.49,40C38.025,44.27 31.995,50.079 32.463,57.557C31.823,80.584 31.923,103.637 32.189,126.672C32.407,133.166 32.123,139.787 34.129,145.939C36.529,151.878 40.047,157.61 45.061,162.09C50.04,166.55 55.905,169.398 62,171C62.44,171.393 81.253,172.71 121.623,171.625C129.398,172.381 135.436,166.195 140,160.68C118.995,159.337 97.878,160.461 76.83,159.789C70.4,159.655 63.628,159.669 57.943,156.934C50.242,153.671 46.032,145.993 44.643,138.227C43.342,105.5 44.593,72.732 43.49,40Z" style="fill-rule:nonzero;"/>
</svg>
