<?xml version="1.0" encoding="UTF-8" standalone="no"?>
<!DOCTYPE svg PUBLIC "-//W3C//DTD SVG 1.1//EN" "http://www.w3.org/Graphics/SVG/1.1/DTD/svg11.dtd">
<svg width="100%" height="100%" viewBox="0 0 96 96" version="1.1" xmlns="http://www.w3.org/2000/svg" xmlns:xlink="http://www.w3.org/1999/xlink" xml:space="preserve" xmlns:serif="http://www.serif.com/" style="fill-rule:evenodd;clip-rule:evenodd;stroke-linejoin:round;stroke-miterlimit:2;">
    <path d="M48,96C74.51,96 96,74.51 96,48C96,21.49 74.51,0 48,0C21.49,0 0,21.49 0,48C0,74.51 21.49,96 48,96ZM60.3,9.909C56.3,8.609 51.5,7.909 47.3,8.009C43.4,8.009 38.2,8.909 35,10.009C32,11.009 27.3,13.609 24.5,15.709C21.8,17.709 17.9,21.709 15.8,24.409C13.8,27.209 11.2,32.209 10,35.709C8.9,39.109 8,44.509 8,47.709C8,50.809 8.9,56.309 10,59.909C11.1,63.509 13.7,68.609 15.8,71.409C17.9,74.209 21.8,78.109 24.5,80.109C27.3,82.209 32.3,84.709 35.8,85.909C39.3,87.009 44.7,87.909 48.3,87.909C51.9,87.909 57,87.109 60.5,85.909C63.8,84.809 68.7,82.209 71.5,80.109C74.2,78.109 78.1,74.209 80.2,71.409C82.2,68.709 84.8,63.609 86,60.209C87.1,56.709 88,51.309 88,48.209C88,45.009 87.1,39.509 86,35.909C84.9,32.309 82.3,27.209 80.2,24.409C78.1,21.709 74.2,17.709 71.5,15.709C68.7,13.609 63.7,11.109 60.3,9.909ZM23.1,25.609C25.5,22.909 29.1,19.809 31,18.609C32.9,17.409 36.3,15.909 38.5,15.209C40.7,14.509 45.7,14.009 49.5,14.209C54.6,14.409 58,15.209 62,17.209C65,18.609 69.4,21.809 71.8,24.109C74.2,26.509 77.4,30.909 78.8,33.909C81.1,38.509 81.5,40.709 81.5,47.909C81.5,55.309 81.1,57.209 78.5,62.409C76.9,65.709 74,70.009 72,71.909C70.1,73.909 65.8,76.809 62.5,78.409C57.3,81.009 55.4,81.409 48,81.409C40.6,81.409 38.7,81.009 33.5,78.409C30.2,76.809 25.9,73.909 24,71.909C22,70.009 19.1,65.709 17.5,62.409C14.9,57.209 14.5,55.309 14.5,47.909C14.5,41.509 15,38.309 16.6,34.909C17.7,32.409 20.6,28.209 23.1,25.609ZM56.8,26.509C54.7,25.609 50.6,24.909 47.8,24.909C44.9,25.009 40.9,25.709 39,26.509C37.1,27.309 34.7,28.709 33.8,29.509C32.2,30.709 31.9,30.709 31.5,28.909C31.2,27.709 30.3,27.009 29.3,27.209C27.8,27.409 27.5,28.509 27.5,33.409L27.5,39.409C38.8,39.409 39.5,39.209 39.5,37.409C39.5,36.209 38.6,35.309 37,34.909C34.6,34.409 34.6,34.309 38.5,31.909C41.4,30.209 44,29.509 48.1,29.509C52.4,29.409 54.5,30.009 57.6,32.009C59.7,33.409 62.6,36.309 63.9,38.509C65.8,41.409 66.4,43.909 66.4,48.109C66.5,53.009 66.1,54.309 63.2,57.909C61.4,60.309 58.3,63.109 56.2,64.209C54,65.509 50.7,66.309 48,66.309C45.5,66.309 41.7,65.409 39.6,64.309C37.4,63.309 34.4,60.809 33,58.909C31.6,57.009 30.1,53.309 29.7,50.709C29.1,46.809 28.6,45.909 27,45.909C25.4,45.909 25,46.609 25,49.709C25,51.709 25.9,55.209 26.9,57.409C27.9,59.609 30.3,62.809 32.1,64.609C34,66.409 37.2,68.509 39.3,69.309C41.3,70.209 45.4,70.909 48.3,70.909C51.2,70.909 55.3,70.009 57.5,69.009C59.7,68.009 62.8,65.909 64.4,64.309C66,62.709 68.1,59.609 69.1,57.409C70.2,55.109 71,51.109 71,47.909C71,44.609 70.2,40.809 69.1,38.409C68.1,36.209 65.7,33.009 63.9,31.209C62,29.409 58.8,27.309 56.8,26.509ZM50,47.909C49.6,38.109 49,35.409 48.3,35.109C47.7,34.909 46.9,35.409 46.5,36.209C46.2,36.909 46,40.909 46.2,45.009L46.5,52.409C57,52.409 57.5,52.209 57.8,50.209C58,48.209 57.6,47.909 54,47.909L50,47.909Z" style="fill:white;"/>
    <path d="M47.3,8.1C51.5,8 56.3,8.7 60.3,10C63.7,11.2 68.7,13.7 71.5,15.8C74.2,17.8 78.1,21.8 80.2,24.5C82.3,27.3 84.9,32.4 86,36C87.1,39.6 88,45.1 88,48.3C88,51.4 87.1,56.8 86,60.3C84.8,63.7 82.2,68.8 80.2,71.5C78.1,74.3 74.2,78.2 71.5,80.2C68.7,82.3 63.8,84.9 60.5,86C57,87.2 51.9,88 48.3,88C44.7,88 39.3,87.1 35.8,86C32.3,84.8 27.3,82.3 24.5,80.2C21.8,78.2 17.9,74.3 15.8,71.5C13.7,68.7 11.1,63.6 10,60C8.9,56.4 8,50.9 8,47.8C8,44.6 8.9,39.2 10,35.8C11.2,32.3 13.8,27.3 15.8,24.5C17.9,21.8 21.8,17.8 24.5,15.8C27.3,13.7 32,11.1 35,10.1C38.2,9 43.4,8.1 47.3,8.1ZM31,18.7C29.1,19.9 25.5,23 23.1,25.7C20.6,28.3 17.7,32.5 16.6,35C15,38.4 14.5,41.6 14.5,48C14.5,55.4 14.9,57.3 17.5,62.5C19.1,65.8 22,70.1 24,72C25.9,74 30.2,76.9 33.5,78.5C38.7,81.1 40.6,81.5 48,81.5C55.4,81.5 57.3,81.1 62.5,78.5C65.8,76.9 70.1,74 72,72C74,70.1 76.9,65.8 78.5,62.5C81.1,57.3 81.5,55.4 81.5,48C81.5,40.8 81.1,38.6 78.8,34C77.4,31 74.2,26.6 71.8,24.2C69.4,21.9 65,18.7 62,17.3C58,15.3 54.6,14.5 49.5,14.3C45.7,14.1 40.7,14.6 38.5,15.3C36.3,16 32.9,17.5 31,18.7ZM47.8,25C50.6,25 54.7,25.7 56.8,26.6C58.8,27.4 62,29.5 63.9,31.3C65.7,33.1 68.1,36.3 69.1,38.5C70.2,40.9 71,44.7 71,48C71,51.2 70.2,55.2 69.1,57.5C68.1,59.7 66,62.8 64.4,64.4C62.8,66 59.7,68.1 57.5,69.1C55.3,70.1 51.2,71 48.3,71C45.4,71 41.3,70.3 39.3,69.4C37.2,68.6 34,66.5 32.1,64.7C30.3,62.9 27.9,59.7 26.9,57.5C25.9,55.3 25,51.8 25,49.8C25,46.7 25.4,46 27,46C28.6,46 29.1,46.9 29.7,50.8C30.1,53.4 31.6,57.1 33,59C34.4,60.9 37.4,63.4 39.6,64.4C41.7,65.5 45.5,66.4 48,66.4C50.7,66.4 54,65.6 56.2,64.3C58.3,63.2 61.4,60.4 63.2,58C66.1,54.4 66.5,53.1 66.4,48.2C66.4,44 65.8,41.5 63.9,38.6C62.6,36.4 59.7,33.5 57.6,32.1C54.5,30.1 52.4,29.5 48.1,29.6C44,29.6 41.4,30.3 38.5,32C34.6,34.4 34.6,34.5 37,35C38.6,35.4 39.5,36.3 39.5,37.5C39.5,39.3 38.8,39.5 27.5,39.5L27.5,33.5C27.5,28.6 27.8,27.5 29.3,27.3C30.3,27.1 31.2,27.8 31.5,29C31.9,30.8 32.2,30.8 33.8,29.6C34.7,28.8 37.1,27.4 39,26.6C40.9,25.8 44.9,25.1 47.8,25ZM48.3,35.2C49,35.5 49.6,38.2 50,48L54,48C57.6,48 58,48.3 57.8,50.3C57.5,52.3 57,52.5 46.5,52.5L46.2,45.1C46,41 46.2,37 46.5,36.3C46.9,35.5 47.7,35 48.3,35.2Z"/>
</svg>
