<?xml version="1.0" encoding="UTF-8" standalone="no"?>
<!DOCTYPE svg PUBLIC "-//W3C//DTD SVG 1.1//EN" "http://www.w3.org/Graphics/SVG/1.1/DTD/svg11.dtd">
<svg width="100%" height="100%" viewBox="0 0 512 512" version="1.1" xmlns="http://www.w3.org/2000/svg" xmlns:xlink="http://www.w3.org/1999/xlink" xml:space="preserve" xmlns:serif="http://www.serif.com/" style="fill-rule:evenodd;clip-rule:evenodd;stroke-linejoin:round;stroke-miterlimit:2;">
    <g transform="matrix(1.32772,0,0,1.32772,-74.6402,-58.7961)">
        <g>
            <path d="M109.217,301.044L85.767,264.22L244.304,52.961L435.936,225.436L402.184,256.806C321.048,263.888 284.835,315.311 195.899,318.348C156.742,319.685 164.167,304.665 109.217,301.044Z" style="fill:rgb(20,116,184);"/>
            <path d="M179.421,317.747L325.724,155.194L404.023,225.667L362.467,264.312C306.438,280.706 268.958,315.854 195.899,318.348C189.239,318.576 183.926,318.33 179.421,317.747Z" style="fill:rgb(38,162,217);"/>
            <path d="M188.696,318.407L181.883,315.01L144.861,257.064L175.424,216.362L199.51,238.04L183.953,258.734L204.197,289.998L237.553,306.87L268.087,278.452L185.141,203.395L204.61,177.491L292.011,256.154L316.324,233.51L224.618,150.972L243.998,125.064L364.132,233.189L306.04,287.192C274.437,301.968 242.363,316.762 195.899,318.348C193.305,318.437 190.916,318.454 188.696,318.407Z" style="fill:rgb(230,230,230);"/>
            <path d="M188.709,318.407L181.884,315.011L204.338,290.062L237.541,306.886L268.287,278.232L238.84,251.728L260.435,227.735L292.011,256.155L316.326,233.51L282.576,203.135L304.132,179.185L364.134,233.189L306.038,287.193C274.437,301.968 242.363,316.762 195.899,318.348C193.31,318.437 190.924,318.454 188.709,318.407Z" style="fill:white;"/>
        </g>
        <g id="Layer-1" serif:id="Layer 1" transform="matrix(2.0188,0,0,2.0188,83.0002,264)">
            <g transform="matrix(1,0,0,1,161.735,19.7821)">
                <path d="M0,6.607C-1.142,9.933 -4.467,15.053 -6.283,18.022C-6.755,18.793 -7.499,19.106 -8.295,19.385C-23.515,24.717 -39.069,26.61 -55.15,24.576C-70.158,22.677 -84.14,17.795 -98.078,10.973C-95.614,10.006 -93.364,10.287 -91.263,10.017C-73.651,7.758 -58.696,2.565 -42.805,-5.338C-30.167,-11.625 -18.882,-17.052 -1.416,-18.425C-0.427,-18.503 1.918,-18.835 2.959,-18.535C5.194,-17.891 5.575,-16.749 5.575,-15.267C5.575,-12.047 4.577,-9.383 4.079,-6.191C3.872,-4.867 2.826,-4.568 1.808,-4.194C-8.795,-0.304 -19.707,2.524 -30.617,5.38C-38.805,7.523 -47.205,8.78 -55.283,11.366C-55.962,11.609 -56.641,11.853 -57.546,12.178C-52.745,13.005 -48.329,12.001 -43.873,12.002C-35.704,12.003 -27.538,11.208 -19.365,10.927C-14.639,10.765 -10.006,10.16 -5.391,9.185C-4.101,8.912 -1.403,5.875 0,6.607" style="fill:rgb(158,100,69);fill-rule:nonzero;"/>
            </g>
            <g transform="matrix(1,0,0,1,57.4379,38.8549)">
                <path d="M0,9.916C-0.9,10.189 -3.823,10.769 -4.576,10.804C-12.551,11.167 -20.499,10.263 -28.472,10.268C-32.837,10.27 -37.204,9.677 -41.569,9.352C-35.173,16.579 -27.429,22.084 -19.195,26.986C-18.265,27.54 -17.776,26.943 -17.189,26.682C-12.091,24.419 -6.909,22.359 -1.525,20.912C6.362,18.792 14.33,17.087 22.395,15.68C31.291,14.128 40.184,12.706 49.158,11.749C49.712,11.69 50.334,11.764 50.623,10.939C38.242,8.836 26.086,5.834 14.077,2.31C2.793,-1.001 -8.245,-4.989 -18.854,-10.195C-30.89,-16.102 -43.852,-17.612 -57.116,-17.097C-57.884,-17.067 -57.349,-15.614 -57.349,-15.614C-56.045,-11.097 -53.942,-8.121 -51.557,-4.083C-50.802,-2.805 -49.971,-1.95 -48.427,-1.581C-44.353,-0.608 -40.336,0.599 -36.283,1.665C-26.865,4.142 -17.392,6.383 -7.849,8.325" style="fill:rgb(158,100,69);fill-rule:nonzero;"/>
            </g>
            <g transform="matrix(1,0,0,1,99.8378,66.8161)">
                <path d="M0,-7.546C2.393,-8.92 5.129,-8.72 7.705,-9.054C20.682,-10.741 33.388,-13.495 45.68,-18.042C45.73,-18.061 45.813,-17.993 45.93,-17.946C46.336,-16.973 45.609,-16.49 45.025,-15.92C31.375,-2.605 15.115,5.438 -3.714,8.413C-17.019,10.515 -30.137,9.746 -43.119,6.251C-43.259,6.214 -43.364,6.046 -43.485,5.939C-41.682,4.398 -39.381,3.874 -37.262,3.051C-31.033,0.631 -24.712,-1.517 -18.233,-3.231C-12.188,-4.831 -6.098,-6.193 0,-7.546" style="fill:rgb(158,100,69);fill-rule:nonzero;"/>
            </g>
            <g transform="matrix(1,0,0,1,161.435,27.303)">
                <path d="M0,-0.5C-1.475,0.713 -3.8,1.391 -5.091,1.664C-9.705,2.639 -14.339,3.244 -19.064,3.406C-27.238,3.688 -35.403,4.482 -43.572,4.481C-48.028,4.48 -52.445,5.484 -57.246,4.657C-56.34,4.332 -55.661,4.088 -54.982,3.845C-50.152,4.03 -45.451,2.935 -40.72,2.277C-30.202,0.813 -19.725,-0.947 -9.334,-3.165C-5.644,-3.953 -2,-4.965 2.105,-5.984C1.024,-3.364 1.619,-2.615 0,-0.5" style="fill:rgb(113,72,50);fill-rule:nonzero;"/>
            </g>
            <g transform="matrix(1,0,0,1,41.3848,45.4964)">
                <path d="M0,2.445C0.562,2.6 13.809,3.385 16.053,3.274C15.815,3.472 14.468,4.115 11.202,4.232C3.227,4.596 -2.112,3.876 -10.085,3.881C-14.451,3.884 -21.15,3.035 -25.516,2.711C-27.361,0.952 -28.138,0.307 -29.84,-2.151C-16.079,0.372 -13.485,0.883 0,2.445" style="fill:rgb(113,72,50);fill-rule:nonzero;"/>
            </g>
            <g transform="matrix(1,0,0,1,106.851,73.5928)">
                <path d="M0,-15.753C-6.098,-14.4 -12.188,-13.038 -18.233,-11.438C-24.712,-9.724 -31.033,-7.576 -37.262,-5.156C-39.381,-4.333 -46.289,-1.54 -48.091,0C-50.559,-0.346 -52.328,-1.585 -52.902,-2.407C-49.232,-4.631 -41.135,-7.125 -37.408,-8.322C-26.881,-11.704 -22.042,-12.999 -11.107,-14.545C-9.559,-14.816 -2.809,-15.534 0,-15.753" style="fill:rgb(113,72,50);fill-rule:nonzero;"/>
            </g>
        </g>
    </g>
</svg>
