<?xml version="1.0" encoding="UTF-8" standalone="no"?>
<!DOCTYPE svg PUBLIC "-//W3C//DTD SVG 1.1//EN" "http://www.w3.org/Graphics/SVG/1.1/DTD/svg11.dtd">
<svg width="100%" height="100%" viewBox="0 0 192 192" version="1.1" xmlns="http://www.w3.org/2000/svg" xmlns:xlink="http://www.w3.org/1999/xlink" xml:space="preserve" xmlns:serif="http://www.serif.com/" style="fill-rule:evenodd;clip-rule:evenodd;stroke-linejoin:round;stroke-miterlimit:2;">
    <path id="path1" d="M74,175C55.644,167.519 31.991,140.059 19.705,124.907C14.815,118.772 14.554,109.236 19.723,103.084C34.373,85.712 82.673,37.122 104.056,18.838C111.8,13.657 122.142,16.013 128.511,22.341C143.299,36.081 157.824,50.197 171.149,65.358C176.77,71.751 178.09,82.198 172.172,88.877C163.726,100.377 122.465,139.911 100,163.52C117.671,164.756 135.49,162.948 153.097,164.909C160.087,168.482 154.351,178.023 147.303,175.583C127.924,176.419 108.503,175.828 89.108,175.873C84.14,175.77 79.173,175.563 74.22,175.16M95.613,149.463C83.422,136.622 63.799,116.137 43.232,97.057C37.38,96.259 32.132,105.533 28.787,110.47C25.429,118.108 34.095,123.76 38.312,129.101C49.411,140.142 60.012,151.758 72.082,161.766C74.91,164.044 79.588,164.241 82.957,162.737M134.5,112.5C144.213,102.202 155.189,92.861 163.37,81.267C165.406,77.571 164.458,76.01 159.768,69.642C149.416,59.415 130.858,39.142 119.51,30C112.466,24.126 105.861,32.23 100.913,36.746C84.636,52.174 51.971,86.775 51.971,86.775C69.737,104.68 86.985,123.139 105.84,139.92C115.899,131.323 125.064,121.758 134.5,112.5Z" style="fill-rule:nonzero;"/>
</svg>
